<svg width="24" height="24" viewBox="0 0 24 24" fill="none" xmlns="http://www.w3.org/2000/svg">
<path d="M9.72858 2.25909C5.61523 3.21447 2.4755 6.70809 2.04938 11H6.04734C6.29804 8.31344 7.50244 5.77692 8.64558 3.89709C9.0169 3.28647 9.38789 2.73525 9.72858 2.25909Z" fill="black"/>
<path d="M2.04938 13C2.4755 17.2919 5.61523 20.7855 9.72858 21.7409C9.38789 21.2648 9.0169 20.7135 8.64558 20.1029C7.50244 18.2231 6.29804 15.6866 6.04734 13H2.04938Z" fill="black"/>
<path d="M14.2714 21.7409C14.6121 21.2648 14.9831 20.7135 15.3544 20.1029C16.4976 18.2231 17.702 15.6866 17.9527 13H21.9506C21.5245 17.2919 18.3848 20.7855 14.2714 21.7409Z" fill="black"/>
<path d="M21.9506 11H17.9527C17.702 8.31344 16.4976 5.77692 15.3544 3.89709C14.9831 3.28647 14.6121 2.73525 14.2714 2.25909C18.3848 3.21447 21.5245 6.70809 21.9506 11Z" fill="black"/>
<path d="M13.6456 4.93625C14.6999 6.66996 15.696 8.82489 15.9422 11H8.05783C8.30397 8.82489 9.30014 6.66996 10.3544 4.93625C10.9519 3.95376 11.5503 3.13513 12 2.56178C12.4497 3.13513 13.0481 3.95376 13.6456 4.93625Z" fill="black"/>
<path d="M10.3544 19.0638C9.30014 17.33 8.30397 15.1751 8.05783 13H15.9422C15.696 15.1751 14.6999 17.33 13.6456 19.0638C13.0481 20.0462 12.4497 20.8649 12 21.4382C11.5503 20.8649 10.9519 20.0462 10.3544 19.0638Z" fill="black"/>
</svg>
