<svg width="22" height="22" viewBox="0 0 22 22" fill="none" xmlns="http://www.w3.org/2000/svg">
<path fill-rule="evenodd" clip-rule="evenodd" d="M7.28749 4.58333C5.27699 4.58333 3.66666 6.19006 3.66666 8.14815C3.66666 9.10189 4.04601 9.96822 4.66902 10.6102L10.9999 17.0279L17.216 10.7243C17.2222 10.7179 17.2286 10.7116 17.2351 10.7054C17.9149 10.0552 18.3333 9.14957 18.3333 8.14815C18.3333 6.19006 16.723 4.58333 14.7125 4.58333C14.2761 4.58333 13.7651 4.82779 13.1965 5.33139C12.6423 5.82222 12.1461 6.45905 11.7464 7.01966C11.5743 7.26093 11.2963 7.40416 11 7.40416C10.7037 7.40416 10.4256 7.26093 10.2536 7.01966C9.8539 6.45905 9.35767 5.82222 8.8035 5.33139C8.23493 4.82779 7.72393 4.58333 7.28749 4.58333ZM1.83333 8.14815C1.83333 5.15613 4.28601 2.75 7.28749 2.75C8.38569 2.75 9.32035 3.3401 10.0191 3.95898C10.3789 4.27767 10.708 4.6325 11 4.98179C11.292 4.6325 11.6211 4.27767 11.9809 3.95898C12.6796 3.3401 13.6143 2.75 14.7125 2.75C17.714 2.75 20.1667 5.15613 20.1667 8.14815C20.1667 9.6689 19.5303 11.0421 18.5124 12.0207L11.6527 18.977C11.4805 19.1516 11.2454 19.25 11.0001 19.25C10.7548 19.25 10.5197 19.1517 10.3474 18.9771L3.35662 11.8904C2.41533 10.9221 1.83333 9.60228 1.83333 8.14815Z" fill="black"/>
</svg>
